M48
;Layer_Color=9474304
;FILE_FORMAT=4:2
METRIC,LZ
;TYPE=PLATED
T1F00S00C0.40
T2F00S00C0.76
T3F00S00C0.80
T4F00S00C0.86
T5F00S00C1.02
T6F00S00C1.30
T7F00S00C3.00
%
T01
X0037Y0002
X0038
X0039
X004
X0041
X0058Y00095
X00807Y00103
X0085Y0012
Y0014
X00865Y0013
X00945Y00295
X00938Y00405
X00987Y004
X0099Y00502
X0103Y00478
X01037Y0047
X0108Y0052
X00906Y00478
X0087Y00494
X0086Y00513
Y0053
X00845Y0048
X0087Y0043
X0088Y00415
X00902Y00394
X00914Y00398
X00926Y00402
X00925Y00325
X009
X00875
X0085
X0086Y0031
X00835
X00845Y00295
X0087
X00885Y0031
X0091
X0092Y00295
X00935Y0031
X00915Y00245
X00875
X00745Y00236
Y00223
X00615Y00205
X0058Y0022
Y0024
X00573Y00295
Y0032
Y00345
Y0037
X00747Y004
X00745Y00425
X0047Y0044
X0045
X00428Y00363
X0044Y0034
Y00315
X003625Y003125
X0035
Y003
Y002875
X003375
Y003
Y003125
X003625Y003
Y002875
X0031Y00215
X00425Y0022
X00447Y00235
X00445Y0017
X0031Y00385
X0037Y0058
X0038
X0039
X004
X0041
X0045Y0055
X0047
X0086Y0054
X0087Y0057
Y0058
X01023Y00558
X01018Y00545
T02
X00105Y00085
Y00135
X005Y00105
X0055
X00715Y00075
X00765
X005475Y0018
Y0026
Y0034
Y0042
X0085Y0035
X009
X004725Y0034
Y0026
Y0018
Y0042
X00135Y00415
Y00365
X00105Y00465
Y00515
X00135Y00235
Y00185
T03
X01075Y00235
Y00255
Y00275
Y00295
Y00315
Y00335
Y00385
Y00405
Y00425
Y00445
Y00465
Y00485
X0053Y00575
X0051
X0049
X0047
X00575
X00595
X00615
X00635
X0068
X007
X0072
X0074
X00785
X00805
X00825
X00845
T04
X00925Y0005
Y001
T05
X00745Y003
X007704
X007958
X00795Y0033
X007696
X007442
T06
X0105Y0011
Y0016
X00045Y00225
Y00275
Y00325
Y00375
T07
X0004Y0004
X0106
X0004Y0056
X0106
M30
