G04 Layer_Physical_Order=2*
G04 Layer_Color=16711680*
%FSLAX42Y42*%
%MOMM*%
G71*
G01*
G75*
%ADD30C,0.40*%
%ADD33C,0.25*%
%ADD34C,0.50*%
%ADD36C,0.38*%
%ADD38C,0.80*%
%ADD39C,2.00*%
%ADD40R,2.00X2.00*%
%ADD41R,1.73X1.73*%
%ADD42C,1.73*%
%ADD43C,1.52*%
%ADD44C,1.30*%
%ADD45R,1.30X1.30*%
%ADD46R,1.30X1.30*%
%ADD47R,1.37X1.37*%
%ADD48C,1.37*%
%ADD49C,5.00*%
%ADD50R,7.20X5.55*%
%ADD51R,3.00X1.00*%
G36*
X9239Y5950D02*
Y5615D01*
X9241Y5607D01*
X9245Y5600D01*
X9252Y5596D01*
X9260Y5594D01*
X10060D01*
X10068Y5596D01*
X10075Y5600D01*
X10079Y5607D01*
X10081Y5615D01*
Y5950D01*
X10950D01*
Y50D01*
X50Y50D01*
Y5950D01*
X9239Y5950D01*
D02*
G37*
%LPC*%
G36*
X8250Y5836D02*
X8228Y5833D01*
X8207Y5825D01*
X8189Y5811D01*
X8175Y5793D01*
X8171Y5781D01*
X8165Y5780D01*
X8135D01*
X8129Y5781D01*
X8125Y5793D01*
X8111Y5811D01*
X8093Y5825D01*
X8072Y5833D01*
X8050Y5836D01*
X8028Y5833D01*
X8007Y5825D01*
X7989Y5811D01*
X7975Y5793D01*
X7967Y5772D01*
X7964Y5750D01*
X7967Y5728D01*
X7975Y5707D01*
X7989Y5689D01*
X8007Y5675D01*
X8028Y5667D01*
X8050Y5664D01*
X8072Y5667D01*
X8093Y5675D01*
X8111Y5689D01*
X8125Y5707D01*
X8129Y5719D01*
X8135Y5720D01*
X8165D01*
X8171Y5719D01*
X8175Y5707D01*
X8189Y5689D01*
X8207Y5675D01*
X8228Y5667D01*
X8250Y5664D01*
X8272Y5667D01*
X8293Y5675D01*
X8311Y5689D01*
X8325Y5707D01*
X8325Y5707D01*
X8365Y5699D01*
Y5665D01*
X8480D01*
X8939Y5206D01*
X8924Y5169D01*
X8647D01*
X8643Y5173D01*
X8624Y5187D01*
X8600Y5191D01*
X8576Y5187D01*
X8557Y5173D01*
X8543Y5154D01*
X8539Y5130D01*
X8543Y5106D01*
X8557Y5087D01*
X8576Y5073D01*
X8600Y5069D01*
X8624Y5073D01*
X8643Y5087D01*
X8647Y5091D01*
X8989D01*
X9134Y4947D01*
X9146Y4938D01*
X9161Y4935D01*
X9760D01*
X9831Y4864D01*
Y4047D01*
X9827Y4043D01*
X9813Y4024D01*
X9809Y4000D01*
X9813Y3976D01*
X9827Y3957D01*
X9846Y3943D01*
X9870Y3939D01*
X9894Y3943D01*
X9913Y3957D01*
X9927Y3976D01*
X9931Y4000D01*
X9927Y4024D01*
X9913Y4043D01*
X9909Y4047D01*
Y4880D01*
X9906Y4895D01*
X9897Y4907D01*
X9884Y4921D01*
X9896Y4949D01*
X9902Y4959D01*
X9924Y4963D01*
X9943Y4977D01*
X9957Y4996D01*
X9961Y5020D01*
X9957Y5044D01*
X9943Y5063D01*
X9924Y5077D01*
X9900Y5081D01*
X9876Y5077D01*
X9857Y5063D01*
X9853Y5059D01*
X9196D01*
X8535Y5720D01*
Y5835D01*
X8365D01*
Y5801D01*
X8325Y5793D01*
X8325Y5793D01*
X8311Y5811D01*
X8293Y5825D01*
X8272Y5833D01*
X8250Y5836D01*
D02*
G37*
G36*
X7200D02*
X7178Y5833D01*
X7157Y5825D01*
X7139Y5811D01*
X7125Y5793D01*
X7121Y5781D01*
X7115Y5780D01*
X7085D01*
X7079Y5781D01*
X7075Y5793D01*
X7061Y5811D01*
X7043Y5825D01*
X7022Y5833D01*
X7000Y5836D01*
X6978Y5833D01*
X6957Y5825D01*
X6939Y5811D01*
X6925Y5793D01*
X6921Y5781D01*
X6915Y5780D01*
X6885D01*
X6879Y5781D01*
X6875Y5793D01*
X6861Y5811D01*
X6843Y5825D01*
X6822Y5833D01*
X6800Y5836D01*
X6778Y5833D01*
X6757Y5825D01*
X6739Y5811D01*
X6725Y5793D01*
X6717Y5772D01*
X6714Y5750D01*
X6717Y5728D01*
X6725Y5707D01*
X6739Y5689D01*
X6757Y5675D01*
X6778Y5667D01*
X6800Y5664D01*
X6822Y5667D01*
X6843Y5675D01*
X6861Y5689D01*
X6875Y5707D01*
X6879Y5719D01*
X6885Y5720D01*
X6915D01*
X6921Y5719D01*
X6925Y5707D01*
X6939Y5689D01*
X6957Y5675D01*
X6978Y5667D01*
X7000Y5664D01*
X7022Y5667D01*
X7043Y5675D01*
X7061Y5689D01*
X7075Y5707D01*
X7079Y5719D01*
X7085Y5720D01*
X7115D01*
X7121Y5719D01*
X7125Y5707D01*
X7139Y5689D01*
X7157Y5675D01*
X7178Y5667D01*
X7200Y5664D01*
X7222Y5667D01*
X7243Y5675D01*
X7261Y5689D01*
X7275Y5707D01*
X7275Y5707D01*
X7315Y5699D01*
Y5665D01*
X7485D01*
Y5835D01*
X7315D01*
Y5801D01*
X7275Y5793D01*
X7275Y5793D01*
X7261Y5811D01*
X7243Y5825D01*
X7222Y5833D01*
X7200Y5836D01*
D02*
G37*
G36*
X5100D02*
X5078Y5833D01*
X5057Y5825D01*
X5039Y5811D01*
X5025Y5793D01*
X5017Y5772D01*
X5014Y5750D01*
X5017Y5728D01*
X5025Y5707D01*
X5039Y5689D01*
X5049Y5682D01*
Y3775D01*
X5053Y3755D01*
X5064Y3739D01*
X5381Y3422D01*
X5378Y3400D01*
X5381Y3375D01*
X5391Y3351D01*
X5406Y3331D01*
X5426Y3316D01*
X5450Y3306D01*
X5475Y3303D01*
X5500Y3306D01*
X5524Y3316D01*
X5544Y3331D01*
X5559Y3351D01*
X5569Y3375D01*
X5572Y3400D01*
X5569Y3425D01*
X5559Y3449D01*
X5544Y3469D01*
X5524Y3484D01*
X5500Y3494D01*
X5475Y3497D01*
X5453Y3494D01*
X5151Y3796D01*
Y5679D01*
X5175Y5700D01*
X5215Y5690D01*
Y5665D01*
X5385D01*
Y5835D01*
X5215D01*
Y5801D01*
X5175Y5793D01*
X5175Y5793D01*
X5161Y5811D01*
X5143Y5825D01*
X5122Y5833D01*
X5100Y5836D01*
D02*
G37*
G36*
X5750D02*
X5728Y5833D01*
X5707Y5825D01*
X5689Y5811D01*
X5675Y5793D01*
X5667Y5772D01*
X5664Y5750D01*
X5667Y5728D01*
X5675Y5707D01*
X5689Y5689D01*
X5707Y5675D01*
X5728Y5667D01*
X5750Y5664D01*
X5772Y5667D01*
X5793Y5675D01*
X5811Y5689D01*
X5825Y5707D01*
X5833Y5728D01*
X5836Y5750D01*
X5833Y5772D01*
X5825Y5793D01*
X5811Y5811D01*
X5793Y5825D01*
X5772Y5833D01*
X5750Y5836D01*
D02*
G37*
G36*
X4700D02*
X4678Y5833D01*
X4657Y5825D01*
X4639Y5811D01*
X4625Y5793D01*
X4617Y5772D01*
X4614Y5750D01*
X4617Y5728D01*
X4625Y5707D01*
X4639Y5689D01*
X4657Y5675D01*
X4678Y5667D01*
X4700Y5664D01*
X4722Y5667D01*
X4743Y5675D01*
X4761Y5689D01*
X4775Y5707D01*
X4783Y5728D01*
X4786Y5750D01*
X4783Y5772D01*
X4775Y5793D01*
X4761Y5811D01*
X4743Y5825D01*
X4722Y5833D01*
X4700Y5836D01*
D02*
G37*
G36*
X1050Y4747D02*
X1025Y4744D01*
X1001Y4734D01*
X981Y4719D01*
X966Y4699D01*
X956Y4675D01*
X953Y4650D01*
X956Y4625D01*
X966Y4601D01*
X981Y4581D01*
X1001Y4566D01*
X1025Y4556D01*
X1050Y4553D01*
X1075Y4556D01*
X1099Y4566D01*
X1119Y4581D01*
X1134Y4601D01*
X1144Y4625D01*
X1147Y4650D01*
X1144Y4675D01*
X1134Y4699D01*
X1119Y4719D01*
X1099Y4734D01*
X1075Y4744D01*
X1050Y4747D01*
D02*
G37*
G36*
X4700Y5561D02*
X4676Y5557D01*
X4657Y5543D01*
X4643Y5524D01*
X4639Y5500D01*
X4643Y5476D01*
X4657Y5457D01*
X4661Y5453D01*
Y4447D01*
X4657Y4443D01*
X4643Y4424D01*
X4639Y4400D01*
X4643Y4376D01*
X4657Y4357D01*
X4676Y4343D01*
X4700Y4339D01*
X4724Y4343D01*
X4743Y4357D01*
X4757Y4376D01*
X4761Y4400D01*
X4757Y4424D01*
X4743Y4443D01*
X4739Y4447D01*
Y5453D01*
X4743Y5457D01*
X4757Y5476D01*
X4761Y5500D01*
X4757Y5524D01*
X4743Y5543D01*
X4724Y5557D01*
X4700Y5561D01*
D02*
G37*
G36*
X4500D02*
X4476Y5557D01*
X4457Y5543D01*
X4443Y5524D01*
X4439Y5500D01*
X4443Y5476D01*
X4457Y5457D01*
X4461Y5453D01*
Y4447D01*
X4457Y4443D01*
X4443Y4424D01*
X4439Y4400D01*
X4443Y4376D01*
X4457Y4357D01*
X4476Y4343D01*
X4500Y4339D01*
X4524Y4343D01*
X4543Y4357D01*
X4557Y4376D01*
X4561Y4400D01*
X4557Y4424D01*
X4543Y4443D01*
X4539Y4447D01*
Y5453D01*
X4543Y5457D01*
X4557Y5476D01*
X4561Y5500D01*
X4557Y5524D01*
X4543Y5543D01*
X4524Y5557D01*
X4500Y5561D01*
D02*
G37*
G36*
X8700Y5001D02*
X8676Y4997D01*
X8657Y4983D01*
X8643Y4964D01*
X8639Y4940D01*
X8643Y4916D01*
X8655Y4899D01*
Y4341D01*
X8643Y4324D01*
X8639Y4300D01*
X8643Y4276D01*
X8657Y4257D01*
X8676Y4243D01*
X8700Y4239D01*
X8724Y4243D01*
X8743Y4257D01*
X8757Y4276D01*
X8761Y4300D01*
X8757Y4324D01*
X8745Y4341D01*
Y4899D01*
X8757Y4916D01*
X8761Y4940D01*
X8757Y4964D01*
X8743Y4983D01*
X8724Y4997D01*
X8700Y5001D01*
D02*
G37*
G36*
X4725Y4297D02*
X4700Y4294D01*
X4676Y4284D01*
X4656Y4269D01*
X4641Y4249D01*
X4631Y4225D01*
X4628Y4200D01*
X4631Y4175D01*
X4641Y4151D01*
X4656Y4131D01*
X4676Y4116D01*
X4700Y4106D01*
X4725Y4103D01*
X4750Y4106D01*
X4774Y4116D01*
X4794Y4131D01*
X4809Y4151D01*
X4819Y4175D01*
X4822Y4200D01*
X4819Y4225D01*
X4809Y4249D01*
X4794Y4269D01*
X4774Y4284D01*
X4750Y4294D01*
X4725Y4297D01*
D02*
G37*
G36*
X570Y3870D02*
X330D01*
Y3630D01*
X570D01*
Y3870D01*
D02*
G37*
G36*
X1350Y3747D02*
X1325Y3744D01*
X1301Y3734D01*
X1281Y3719D01*
X1266Y3699D01*
X1256Y3675D01*
X1253Y3650D01*
X1256Y3625D01*
X1266Y3601D01*
X1281Y3581D01*
X1301Y3566D01*
X1325Y3556D01*
X1350Y3553D01*
X1375Y3556D01*
X1399Y3566D01*
X1419Y3581D01*
X1434Y3601D01*
X1444Y3625D01*
X1447Y3650D01*
X1444Y3675D01*
X1434Y3699D01*
X1419Y3719D01*
X1399Y3734D01*
X1375Y3744D01*
X1350Y3747D01*
D02*
G37*
G36*
X7470Y4061D02*
X7446Y4057D01*
X7427Y4043D01*
X7413Y4024D01*
X7409Y4000D01*
X7413Y3976D01*
X7427Y3957D01*
X7446Y3943D01*
X7465Y3940D01*
X7517Y3887D01*
X7517Y3887D01*
X7532Y3877D01*
X7550Y3874D01*
X7550Y3874D01*
X8331D01*
X8454Y3751D01*
Y3585D01*
X8451Y3584D01*
X8431Y3569D01*
X8416Y3549D01*
X8406Y3525D01*
X8403Y3500D01*
X8406Y3475D01*
X8416Y3451D01*
X8431Y3431D01*
X8451Y3416D01*
X8475Y3406D01*
X8500Y3403D01*
X8525Y3406D01*
X8549Y3416D01*
X8569Y3431D01*
X8584Y3451D01*
X8594Y3475D01*
X8597Y3500D01*
X8594Y3525D01*
X8584Y3549D01*
X8569Y3569D01*
X8549Y3584D01*
X8546Y3585D01*
Y3770D01*
X8543Y3788D01*
X8533Y3803D01*
X8533Y3803D01*
X8383Y3953D01*
X8368Y3963D01*
X8350Y3966D01*
X8350Y3966D01*
X7569D01*
X7530Y4005D01*
X7527Y4024D01*
X7513Y4043D01*
X7494Y4057D01*
X7470Y4061D01*
D02*
G37*
G36*
X4725Y3497D02*
X4700Y3494D01*
X4676Y3484D01*
X4656Y3469D01*
X4641Y3449D01*
X4631Y3425D01*
X4628Y3400D01*
X4631Y3375D01*
X4641Y3351D01*
X4656Y3331D01*
X4676Y3316D01*
X4700Y3306D01*
X4725Y3303D01*
X4750Y3306D01*
X4774Y3316D01*
X4794Y3331D01*
X4809Y3351D01*
X4819Y3375D01*
X4822Y3400D01*
X4819Y3425D01*
X4809Y3449D01*
X4794Y3469D01*
X4774Y3484D01*
X4750Y3494D01*
X4725Y3497D01*
D02*
G37*
G36*
X450Y3371D02*
X419Y3367D01*
X389Y3355D01*
X364Y3336D01*
X345Y3311D01*
X333Y3281D01*
X329Y3250D01*
X333Y3219D01*
X345Y3189D01*
X364Y3164D01*
X389Y3145D01*
X419Y3133D01*
X450Y3129D01*
X481Y3133D01*
X511Y3145D01*
X536Y3164D01*
X555Y3189D01*
X567Y3219D01*
X571Y3250D01*
X567Y3281D01*
X555Y3311D01*
X536Y3336D01*
X511Y3355D01*
X481Y3367D01*
X450Y3371D01*
D02*
G37*
G36*
X10230Y5641D02*
X10206Y5637D01*
X10187Y5623D01*
X10173Y5604D01*
X10169Y5580D01*
X10173Y5556D01*
X10178Y5550D01*
X10163Y5510D01*
X10161Y5508D01*
X10156Y5507D01*
X10137Y5493D01*
X10123Y5474D01*
X10119Y5450D01*
X10122Y5433D01*
X10121Y5430D01*
Y3740D01*
X10124Y3725D01*
X10133Y3713D01*
X10669Y3176D01*
X10667Y3172D01*
X10664Y3150D01*
X10667Y3128D01*
X10675Y3107D01*
X10689Y3089D01*
X10707Y3075D01*
X10719Y3071D01*
X10720Y3065D01*
Y3035D01*
X10719Y3029D01*
X10707Y3025D01*
X10689Y3011D01*
X10675Y2993D01*
X10674Y2989D01*
X10496D01*
X9440Y4045D01*
X9441Y4050D01*
X9437Y4074D01*
X9423Y4093D01*
X9404Y4107D01*
X9380Y4111D01*
X9356Y4107D01*
X9337Y4093D01*
X9333Y4088D01*
X9316Y4074D01*
X9284Y4077D01*
X9283Y4077D01*
X9260Y4081D01*
X9236Y4077D01*
X9217Y4063D01*
X9209Y4052D01*
X9201Y4043D01*
X9164Y4037D01*
X9161Y4037D01*
X9140Y4041D01*
X9116Y4037D01*
X9097Y4023D01*
X9089Y4012D01*
X9081Y4003D01*
X9044Y3997D01*
X9041Y3997D01*
X9020Y4001D01*
X8996Y3997D01*
X8977Y3983D01*
X8963Y3964D01*
X8961Y3951D01*
X8929Y3937D01*
X8920Y3936D01*
X8806Y4050D01*
X8820Y4092D01*
X8824Y4093D01*
X8843Y4107D01*
X8857Y4126D01*
X8861Y4147D01*
X9092Y4378D01*
X9102Y4393D01*
X9105Y4410D01*
Y4739D01*
X9117Y4756D01*
X9121Y4780D01*
X9117Y4804D01*
X9103Y4823D01*
X9084Y4837D01*
X9060Y4841D01*
X9036Y4837D01*
X9017Y4823D01*
X9003Y4804D01*
X8999Y4780D01*
X9003Y4756D01*
X9015Y4739D01*
Y4429D01*
X8797Y4211D01*
X8776Y4207D01*
X8757Y4193D01*
X8743Y4174D01*
X8742Y4170D01*
X8700Y4156D01*
X8596Y4259D01*
Y4700D01*
X8596Y4700D01*
X8593Y4718D01*
X8583Y4733D01*
X8583Y4733D01*
X8510Y4805D01*
X8507Y4824D01*
X8493Y4843D01*
X8474Y4857D01*
X8450Y4861D01*
X8426Y4857D01*
X8407Y4843D01*
X8393Y4824D01*
X8389Y4800D01*
X8393Y4776D01*
X8407Y4757D01*
X8426Y4743D01*
X8445Y4740D01*
X8504Y4681D01*
Y4240D01*
X8504Y4240D01*
X8507Y4222D01*
X8517Y4207D01*
X8954Y3771D01*
Y3585D01*
X8951Y3584D01*
X8931Y3569D01*
X8916Y3549D01*
X8906Y3525D01*
X8903Y3500D01*
X8906Y3475D01*
X8916Y3451D01*
X8931Y3431D01*
X8951Y3416D01*
X8975Y3406D01*
X9000Y3403D01*
X9025Y3406D01*
X9049Y3416D01*
X9069Y3431D01*
X9084Y3451D01*
X9094Y3475D01*
X9097Y3500D01*
X9094Y3525D01*
X9084Y3549D01*
X9069Y3569D01*
X9049Y3584D01*
X9046Y3585D01*
Y3790D01*
X9046Y3790D01*
X9043Y3805D01*
X9045Y3808D01*
X9083Y3822D01*
X10583Y2323D01*
X10595Y2314D01*
X10610Y2311D01*
X10665D01*
Y2265D01*
X10835D01*
Y2435D01*
X10801D01*
X10793Y2475D01*
X10793Y2475D01*
X10811Y2489D01*
X10825Y2507D01*
X10833Y2528D01*
X10836Y2550D01*
X10833Y2572D01*
X10825Y2593D01*
X10811Y2611D01*
X10793Y2625D01*
X10781Y2629D01*
X10780Y2635D01*
Y2665D01*
X10781Y2671D01*
X10793Y2675D01*
X10811Y2689D01*
X10825Y2707D01*
X10833Y2728D01*
X10836Y2750D01*
X10833Y2772D01*
X10825Y2793D01*
X10811Y2811D01*
X10793Y2825D01*
X10781Y2829D01*
X10780Y2835D01*
Y2865D01*
X10781Y2871D01*
X10793Y2875D01*
X10811Y2889D01*
X10825Y2907D01*
X10833Y2928D01*
X10836Y2950D01*
X10833Y2972D01*
X10825Y2993D01*
X10811Y3011D01*
X10793Y3025D01*
X10781Y3029D01*
X10780Y3035D01*
Y3065D01*
X10781Y3071D01*
X10793Y3075D01*
X10811Y3089D01*
X10825Y3107D01*
X10833Y3128D01*
X10836Y3150D01*
X10833Y3172D01*
X10825Y3193D01*
X10811Y3211D01*
X10793Y3225D01*
X10781Y3229D01*
X10780Y3235D01*
Y3265D01*
X10781Y3271D01*
X10793Y3275D01*
X10811Y3289D01*
X10825Y3307D01*
X10833Y3328D01*
X10836Y3350D01*
X10833Y3372D01*
X10825Y3393D01*
X10811Y3411D01*
X10793Y3425D01*
X10772Y3433D01*
X10750Y3436D01*
X10728Y3433D01*
X10724Y3431D01*
X10265Y3890D01*
Y4655D01*
X10284Y4675D01*
X10305Y4682D01*
X10313Y4677D01*
X10313Y4676D01*
X10327Y4657D01*
X10346Y4643D01*
X10370Y4639D01*
X10375Y4640D01*
X10511Y4504D01*
Y4250D01*
X10514Y4235D01*
X10523Y4223D01*
X10669Y4076D01*
X10667Y4072D01*
X10664Y4050D01*
X10667Y4028D01*
X10675Y4007D01*
X10689Y3989D01*
X10707Y3975D01*
X10728Y3967D01*
X10750Y3964D01*
X10772Y3967D01*
X10793Y3975D01*
X10811Y3989D01*
X10825Y4007D01*
X10833Y4028D01*
X10836Y4050D01*
X10833Y4072D01*
X10825Y4093D01*
X10811Y4111D01*
X10793Y4125D01*
X10781Y4129D01*
X10780Y4135D01*
Y4165D01*
X10781Y4171D01*
X10793Y4175D01*
X10811Y4189D01*
X10825Y4207D01*
X10833Y4228D01*
X10836Y4250D01*
X10833Y4272D01*
X10825Y4293D01*
X10811Y4311D01*
X10793Y4325D01*
X10781Y4329D01*
X10780Y4335D01*
Y4365D01*
X10781Y4371D01*
X10793Y4375D01*
X10811Y4389D01*
X10825Y4407D01*
X10833Y4428D01*
X10836Y4450D01*
X10833Y4472D01*
X10825Y4493D01*
X10811Y4511D01*
X10793Y4525D01*
X10781Y4529D01*
X10780Y4535D01*
Y4565D01*
X10781Y4571D01*
X10793Y4575D01*
X10811Y4589D01*
X10825Y4607D01*
X10833Y4628D01*
X10836Y4650D01*
X10833Y4672D01*
X10825Y4693D01*
X10811Y4711D01*
X10793Y4725D01*
X10781Y4729D01*
X10780Y4735D01*
Y4765D01*
X10781Y4771D01*
X10793Y4775D01*
X10811Y4789D01*
X10825Y4807D01*
X10833Y4828D01*
X10836Y4850D01*
X10833Y4872D01*
X10825Y4893D01*
X10811Y4911D01*
X10793Y4925D01*
X10772Y4933D01*
X10750Y4936D01*
X10728Y4933D01*
X10707Y4925D01*
X10689Y4911D01*
X10675Y4893D01*
X10667Y4872D01*
X10664Y4850D01*
X10665Y4844D01*
X10649Y4829D01*
X10631Y4817D01*
X10630Y4817D01*
X10620Y4819D01*
X10620Y4819D01*
X10347D01*
X10343Y4823D01*
X10324Y4837D01*
X10300Y4841D01*
X10292Y4848D01*
Y5557D01*
X10289Y5569D01*
X10291Y5580D01*
X10287Y5604D01*
X10273Y5623D01*
X10254Y5637D01*
X10230Y5641D01*
D02*
G37*
G36*
X6150Y5836D02*
X6128Y5833D01*
X6107Y5825D01*
X6089Y5811D01*
X6075Y5793D01*
X6067Y5772D01*
X6064Y5750D01*
X6066Y5738D01*
X5834Y5506D01*
X5823Y5490D01*
X5819Y5470D01*
Y2701D01*
X5439Y2321D01*
X5428Y2305D01*
X5424Y2285D01*
Y1882D01*
X5406Y1869D01*
X5391Y1849D01*
X5381Y1825D01*
X5378Y1800D01*
X5381Y1775D01*
X5391Y1751D01*
X5406Y1731D01*
X5426Y1716D01*
X5450Y1706D01*
X5475Y1703D01*
X5500Y1706D01*
X5524Y1716D01*
X5544Y1731D01*
X5559Y1751D01*
X5569Y1775D01*
X5572Y1800D01*
X5569Y1825D01*
X5559Y1849D01*
X5544Y1869D01*
X5526Y1882D01*
Y2264D01*
X5906Y2644D01*
X5917Y2660D01*
X5921Y2680D01*
Y5449D01*
X6138Y5666D01*
X6150Y5664D01*
X6172Y5667D01*
X6193Y5675D01*
X6211Y5689D01*
X6225Y5707D01*
X6225Y5707D01*
X6265Y5699D01*
Y5665D01*
X6299D01*
Y5450D01*
X6303Y5430D01*
X6314Y5414D01*
X6499Y5229D01*
Y3750D01*
X6503Y3730D01*
X6514Y3714D01*
X6804Y3424D01*
X6820Y3413D01*
X6840Y3409D01*
X7343D01*
X7352Y3395D01*
X7360Y3369D01*
X7349Y3354D01*
X7338Y3328D01*
X7334Y3300D01*
X7338Y3272D01*
X7349Y3246D01*
X7353Y3241D01*
X7333Y3201D01*
X7050D01*
X7030Y3197D01*
X7014Y3186D01*
X6114Y2286D01*
X6103Y2270D01*
X6099Y2250D01*
Y2082D01*
X6093Y2074D01*
X6089Y2050D01*
X6093Y2026D01*
X6107Y2007D01*
X6126Y1993D01*
X6150Y1989D01*
X6174Y1993D01*
X6193Y2007D01*
X6207Y2026D01*
X6211Y2050D01*
X6207Y2074D01*
X6201Y2082D01*
Y2229D01*
X7071Y3099D01*
X7343D01*
Y2893D01*
X7557D01*
Y3099D01*
X7595D01*
X7615Y3059D01*
X7611Y3054D01*
X7600Y3028D01*
X7596Y3000D01*
X7600Y2972D01*
X7611Y2946D01*
X7628Y2924D01*
X7650Y2907D01*
X7676Y2896D01*
X7704Y2892D01*
X7732Y2896D01*
X7758Y2907D01*
X7780Y2924D01*
X7797Y2946D01*
X7806Y2968D01*
X7807Y2971D01*
X7808Y2972D01*
X7808Y2972D01*
X7854D01*
X7854Y2972D01*
X7855Y2971D01*
X7856Y2968D01*
X7865Y2946D01*
X7882Y2924D01*
X7904Y2907D01*
X7930Y2896D01*
X7958Y2892D01*
X7986Y2896D01*
X8012Y2907D01*
X8034Y2924D01*
X8051Y2946D01*
X8062Y2972D01*
X8066Y3000D01*
X8062Y3028D01*
X8051Y3054D01*
X8034Y3076D01*
X8012Y3093D01*
X7986Y3104D01*
X7958Y3108D01*
X7930Y3104D01*
X7904Y3093D01*
X7882Y3076D01*
X7865Y3054D01*
X7856Y3032D01*
X7855Y3029D01*
X7854Y3028D01*
X7854Y3028D01*
X7808D01*
X7808Y3028D01*
X7807Y3029D01*
X7806Y3032D01*
X7797Y3054D01*
X7793Y3059D01*
X7796Y3073D01*
X7811Y3101D01*
X7820Y3103D01*
X7836Y3114D01*
X7916Y3193D01*
X8057D01*
Y3407D01*
X7843D01*
Y3300D01*
X7842Y3298D01*
X7840Y3298D01*
X7801Y3322D01*
X7800Y3328D01*
X7789Y3354D01*
X7772Y3376D01*
X7750Y3393D01*
X7724Y3404D01*
X7696Y3408D01*
X7668Y3404D01*
X7666Y3403D01*
X7572Y3496D01*
X7556Y3507D01*
X7536Y3511D01*
X6861D01*
X6601Y3771D01*
Y5250D01*
X6597Y5270D01*
X6586Y5286D01*
X6401Y5471D01*
Y5665D01*
X6435D01*
Y5835D01*
X6265D01*
Y5801D01*
X6225Y5793D01*
X6225Y5793D01*
X6211Y5811D01*
X6193Y5825D01*
X6172Y5833D01*
X6150Y5836D01*
D02*
G37*
G36*
X450Y2871D02*
X419Y2867D01*
X389Y2855D01*
X364Y2836D01*
X345Y2811D01*
X333Y2781D01*
X329Y2750D01*
X333Y2719D01*
X345Y2689D01*
X364Y2664D01*
X389Y2645D01*
X419Y2633D01*
X450Y2629D01*
X481Y2633D01*
X511Y2645D01*
X536Y2664D01*
X555Y2689D01*
X567Y2719D01*
X571Y2750D01*
X567Y2781D01*
X555Y2811D01*
X536Y2836D01*
X511Y2855D01*
X481Y2867D01*
X450Y2871D01*
D02*
G37*
G36*
X4725Y2697D02*
X4700Y2694D01*
X4676Y2684D01*
X4656Y2669D01*
X4641Y2649D01*
X4631Y2625D01*
X4628Y2600D01*
X4631Y2575D01*
X4641Y2551D01*
X4656Y2531D01*
X4676Y2516D01*
X4700Y2506D01*
X4725Y2503D01*
X4750Y2506D01*
X4774Y2516D01*
X4794Y2531D01*
X4809Y2551D01*
X4819Y2575D01*
X4822Y2600D01*
X4819Y2625D01*
X4809Y2649D01*
X4794Y2669D01*
X4774Y2684D01*
X4750Y2694D01*
X4725Y2697D01*
D02*
G37*
G36*
X9150Y2511D02*
X9126Y2507D01*
X9107Y2493D01*
X9103Y2489D01*
X8797D01*
X8793Y2493D01*
X8774Y2507D01*
X8750Y2511D01*
X8726Y2507D01*
X8707Y2493D01*
X8693Y2474D01*
X8689Y2450D01*
X8693Y2426D01*
X8707Y2407D01*
X8726Y2393D01*
X8750Y2389D01*
X8774Y2393D01*
X8793Y2407D01*
X8797Y2411D01*
X9103D01*
X9107Y2407D01*
X9126Y2393D01*
X9150Y2389D01*
X9174Y2393D01*
X9193Y2407D01*
X9207Y2426D01*
X9211Y2450D01*
X9207Y2474D01*
X9193Y2493D01*
X9174Y2507D01*
X9150Y2511D01*
D02*
G37*
G36*
X1350Y2447D02*
X1325Y2444D01*
X1301Y2434D01*
X1281Y2419D01*
X1266Y2399D01*
X1256Y2375D01*
X1253Y2350D01*
X1256Y2325D01*
X1266Y2301D01*
X1281Y2281D01*
X1301Y2266D01*
X1325Y2256D01*
X1350Y2253D01*
X1375Y2256D01*
X1399Y2266D01*
X1419Y2281D01*
X1434Y2301D01*
X1444Y2325D01*
X1447Y2350D01*
X1444Y2375D01*
X1434Y2399D01*
X1419Y2419D01*
X1399Y2434D01*
X1375Y2444D01*
X1350Y2447D01*
D02*
G37*
G36*
X450Y2371D02*
X419Y2367D01*
X389Y2355D01*
X364Y2336D01*
X345Y2311D01*
X333Y2281D01*
X329Y2250D01*
X333Y2219D01*
X345Y2189D01*
X364Y2164D01*
X389Y2145D01*
X419Y2133D01*
X450Y2129D01*
X481Y2133D01*
X511Y2145D01*
X536Y2164D01*
X555Y2189D01*
X567Y2219D01*
X571Y2250D01*
X567Y2281D01*
X555Y2311D01*
X536Y2336D01*
X511Y2355D01*
X481Y2367D01*
X450Y2371D01*
D02*
G37*
G36*
X4725Y1897D02*
X4700Y1894D01*
X4676Y1884D01*
X4656Y1869D01*
X4641Y1849D01*
X4631Y1825D01*
X4628Y1800D01*
X4631Y1775D01*
X4641Y1751D01*
X4656Y1731D01*
X4676Y1716D01*
X4700Y1706D01*
X4725Y1703D01*
X4750Y1706D01*
X4774Y1716D01*
X4794Y1731D01*
X4809Y1751D01*
X4819Y1775D01*
X4822Y1800D01*
X4819Y1825D01*
X4809Y1849D01*
X4794Y1869D01*
X4774Y1884D01*
X4750Y1894D01*
X4725Y1897D01*
D02*
G37*
G36*
X1050Y1447D02*
X1025Y1444D01*
X1001Y1434D01*
X981Y1419D01*
X966Y1399D01*
X956Y1375D01*
X953Y1350D01*
X956Y1325D01*
X966Y1301D01*
X981Y1281D01*
X1001Y1266D01*
X1025Y1256D01*
X1050Y1253D01*
X1075Y1256D01*
X1099Y1266D01*
X1119Y1281D01*
X1134Y1301D01*
X1144Y1325D01*
X1147Y1350D01*
X1144Y1375D01*
X1134Y1399D01*
X1119Y1419D01*
X1099Y1434D01*
X1075Y1444D01*
X1050Y1447D01*
D02*
G37*
G36*
X5500Y1147D02*
X5475Y1144D01*
X5451Y1134D01*
X5431Y1119D01*
X5416Y1099D01*
X5406Y1075D01*
X5403Y1050D01*
X5406Y1025D01*
X5416Y1001D01*
X5431Y981D01*
X5451Y966D01*
X5475Y956D01*
X5500Y953D01*
X5525Y956D01*
X5549Y966D01*
X5569Y981D01*
X5584Y1001D01*
X5594Y1025D01*
X5597Y1050D01*
X5594Y1075D01*
X5584Y1099D01*
X5569Y1119D01*
X5549Y1134D01*
X5525Y1144D01*
X5500Y1147D01*
D02*
G37*
G36*
X9550Y2201D02*
X9530Y2197D01*
X9514Y2186D01*
X9464Y2136D01*
X9453Y2120D01*
X9449Y2100D01*
X9449Y1383D01*
X9417Y1351D01*
X9050D01*
X9030Y1347D01*
X9014Y1336D01*
X8964Y1286D01*
X8953Y1270D01*
X8949Y1250D01*
X8949Y850D01*
X8953Y830D01*
X8964Y814D01*
X9014Y764D01*
X9030Y753D01*
X9050Y749D01*
X10650Y749D01*
X10670Y753D01*
X10686Y764D01*
X10736Y814D01*
X10747Y830D01*
X10751Y850D01*
X10751Y1250D01*
X10747Y1270D01*
X10736Y1286D01*
X10686Y1336D01*
X10670Y1347D01*
X10650Y1351D01*
X10121Y1351D01*
X10101Y1371D01*
X10101Y2100D01*
X10097Y2120D01*
X10086Y2136D01*
X10036Y2186D01*
X10020Y2197D01*
X10000Y2201D01*
X9550Y2201D01*
D02*
G37*
G36*
X7650Y847D02*
X7625Y844D01*
X7601Y834D01*
X7581Y819D01*
X7566Y799D01*
X7556Y775D01*
X7553Y750D01*
X7556Y725D01*
X7566Y701D01*
X7581Y681D01*
X7601Y666D01*
X7625Y656D01*
X7650Y653D01*
X7675Y656D01*
X7699Y666D01*
X7719Y681D01*
X7734Y701D01*
X7744Y725D01*
X7747Y750D01*
X7744Y775D01*
X7734Y799D01*
X7719Y819D01*
X7699Y834D01*
X7675Y844D01*
X7650Y847D01*
D02*
G37*
G36*
X7150D02*
X7125Y844D01*
X7101Y834D01*
X7081Y819D01*
X7066Y799D01*
X7056Y775D01*
X7053Y750D01*
X7056Y725D01*
X7066Y701D01*
X7081Y681D01*
X7101Y666D01*
X7125Y656D01*
X7150Y653D01*
X7175Y656D01*
X7199Y666D01*
X7219Y681D01*
X7234Y701D01*
X7244Y725D01*
X7247Y750D01*
X7244Y775D01*
X7234Y799D01*
X7219Y819D01*
X7199Y834D01*
X7175Y844D01*
X7150Y847D01*
D02*
G37*
%LPD*%
G36*
X10000Y2150D02*
X10050Y2100D01*
X10050Y1350D01*
X10100Y1300D01*
X10650Y1300D01*
X10700Y1250D01*
X10700Y850D01*
X10650Y800D01*
X9050Y800D01*
X9000Y850D01*
X9000Y1250D01*
X9050Y1300D01*
X9450D01*
X9500Y1350D01*
X9500Y2100D01*
X9550Y2150D01*
X10000Y2150D01*
D02*
G37*
D30*
X8500Y3500D02*
Y3770D01*
X8350Y3920D02*
X8500Y3770D01*
X7550Y3920D02*
X8350D01*
X7470Y4000D02*
X7550Y3920D01*
X9000Y3500D02*
Y3790D01*
X8550Y4240D02*
X9000Y3790D01*
X8550Y4240D02*
Y4700D01*
X8450Y4800D02*
X8550Y4700D01*
D33*
X10160Y5430D02*
X10180Y5450D01*
X10160Y3740D02*
Y5430D01*
X10226Y4809D02*
X10253Y4836D01*
X10226Y3874D02*
Y4809D01*
Y3874D02*
X10750Y3350D01*
X10230Y5580D02*
X10253Y5557D01*
Y4836D02*
Y5557D01*
X10160Y3740D02*
X10750Y3150D01*
X10480Y2950D02*
X10750D01*
X9380Y4050D02*
X10480Y2950D01*
X9380Y4050D02*
Y4050D01*
X10580Y2550D02*
X10750D01*
X9150Y3980D02*
X10580Y2550D01*
X9140Y3980D02*
X9150D01*
X10610Y2350D02*
X10750D01*
X9020Y3940D02*
X10610Y2350D01*
X9260Y4020D02*
X10530Y2750D01*
X10550Y4250D02*
X10750Y4050D01*
X10550Y4250D02*
Y4520D01*
X10620Y4780D02*
X10750Y4650D01*
X10620Y4780D02*
X10620Y4780D01*
X10370Y4700D02*
X10550Y4520D01*
X10300Y4780D02*
X10620D01*
X10530Y2750D02*
X10750D01*
X8450Y5750D02*
X9180Y5020D01*
X9900D01*
X8600Y5130D02*
X9005D01*
X9161Y4974D01*
X9776D01*
X9870Y4880D01*
Y4000D02*
Y4880D01*
X8750Y2450D02*
X9150D01*
X4700Y4400D02*
Y5500D01*
X4500Y4400D02*
Y5500D01*
D34*
X5870Y5470D02*
X6150Y5750D01*
X5870Y2680D02*
Y5470D01*
X5475Y2285D02*
X5870Y2680D01*
X5475Y1800D02*
Y2285D01*
X6150Y2250D02*
X7050Y3150D01*
X6150Y2050D02*
Y2250D01*
X7050Y3150D02*
X7800D01*
X6550Y3750D02*
Y5250D01*
X6350Y5450D02*
X6550Y5250D01*
X6350Y5450D02*
Y5750D01*
X6550Y3750D02*
X6840Y3460D01*
X7536D01*
X7696Y3300D01*
X5100Y3775D02*
X5475Y3400D01*
X5100Y3775D02*
Y5750D01*
X7800Y3150D02*
X7950Y3300D01*
D36*
X8700Y4300D02*
X8700Y4300D01*
Y4940D01*
X8800Y4150D02*
X9060Y4410D01*
Y4780D01*
D38*
X3625Y3125D02*
D03*
X3375D02*
D03*
X3625Y2875D02*
D03*
X3375D02*
D03*
X3625Y3000D02*
D03*
X3375D02*
D03*
X3500Y3125D02*
D03*
Y2875D02*
D03*
Y3000D02*
D03*
X10180Y5450D02*
D03*
X9140Y3980D02*
D03*
X9020Y3940D02*
D03*
X9260Y4020D02*
D03*
X9380Y4050D02*
D03*
X5800Y950D02*
D03*
X5730Y2950D02*
D03*
Y3200D02*
D03*
X4100Y5800D02*
D03*
X4000D02*
D03*
X3900D02*
D03*
X3800D02*
D03*
X3700D02*
D03*
Y200D02*
D03*
X3800D02*
D03*
X3900D02*
D03*
X4000D02*
D03*
X4100D02*
D03*
X10800Y5200D02*
D03*
X8600Y5400D02*
D03*
Y5300D02*
D03*
X8700Y5700D02*
D03*
Y5800D02*
D03*
X5730Y3700D02*
D03*
Y3450D02*
D03*
X8650Y1300D02*
D03*
X8500Y1200D02*
D03*
Y1400D02*
D03*
X4280Y3630D02*
D03*
X4400Y3400D02*
D03*
Y3150D02*
D03*
X4470Y2350D02*
D03*
X4450Y1700D02*
D03*
X4250Y2200D02*
D03*
X5800D02*
D03*
Y2400D02*
D03*
X9450Y2950D02*
D03*
X9200D02*
D03*
X8700D02*
D03*
X8450D02*
D03*
X9350Y3100D02*
D03*
X9100D02*
D03*
X8850D02*
D03*
X8600D02*
D03*
X8350D02*
D03*
X8500Y3250D02*
D03*
X8750D02*
D03*
X9000D02*
D03*
X9250D02*
D03*
X8070Y1030D02*
D03*
X7450Y2360D02*
D03*
Y2230D02*
D03*
X6150Y2050D02*
D03*
X4700Y4400D02*
D03*
X4500D02*
D03*
X7470Y4000D02*
D03*
X7450Y4250D02*
D03*
X8450Y4800D02*
D03*
X8800Y4150D02*
D03*
X9060Y4780D02*
D03*
X8700Y4300D02*
D03*
X8700Y4940D02*
D03*
X3100Y3850D02*
D03*
Y2150D02*
D03*
X10230Y5580D02*
D03*
X10300Y4780D02*
D03*
X10370Y4700D02*
D03*
X9900Y5020D02*
D03*
X8600Y5130D02*
D03*
X9870Y4000D02*
D03*
X9150Y2450D02*
D03*
X8750D02*
D03*
X4700Y5500D02*
D03*
X4500D02*
D03*
D39*
X10500Y1600D02*
D03*
X450Y2250D02*
D03*
Y2750D02*
D03*
Y3250D02*
D03*
D40*
X10500Y1100D02*
D03*
X450Y3750D02*
D03*
D41*
X7950Y3300D02*
D03*
X7450Y3000D02*
D03*
D42*
X7442Y3300D02*
D03*
X7696D02*
D03*
X7958Y3000D02*
D03*
X7704D02*
D03*
D43*
X5475Y4200D02*
D03*
X4725D02*
D03*
Y3400D02*
D03*
X5475D02*
D03*
Y2600D02*
D03*
X4725D02*
D03*
Y1800D02*
D03*
X5475D02*
D03*
X7150Y750D02*
D03*
X7650D02*
D03*
X5500Y1050D02*
D03*
X5000D02*
D03*
X8500Y3500D02*
D03*
X9000D02*
D03*
X1050Y5150D02*
D03*
Y4650D02*
D03*
X1350Y3650D02*
D03*
Y4150D02*
D03*
Y1850D02*
D03*
Y2350D02*
D03*
X1050Y1350D02*
D03*
Y850D02*
D03*
D44*
X4700Y5750D02*
D03*
X4900D02*
D03*
X5100D02*
D03*
X5750D02*
D03*
X5950D02*
D03*
X6150D02*
D03*
X6800D02*
D03*
X7000D02*
D03*
X7200D02*
D03*
X7850D02*
D03*
X8050D02*
D03*
X8250D02*
D03*
X10750Y2550D02*
D03*
Y2750D02*
D03*
Y2950D02*
D03*
Y3150D02*
D03*
Y3350D02*
D03*
Y4050D02*
D03*
Y4250D02*
D03*
Y4450D02*
D03*
Y4650D02*
D03*
Y4850D02*
D03*
D45*
X5300Y5750D02*
D03*
X6350D02*
D03*
X7400D02*
D03*
X8450D02*
D03*
D46*
X10750Y2350D02*
D03*
Y3850D02*
D03*
D47*
X9250Y1000D02*
D03*
D48*
Y500D02*
D03*
D49*
X400Y5600D02*
D03*
Y400D02*
D03*
X10600D02*
D03*
Y5600D02*
D03*
D50*
X9055Y1750D02*
D03*
D51*
X9660Y1521D02*
D03*
Y1979D02*
D03*
M02*
