G04 Layer_Color=16711935*
%FSLAX42Y42*%
%MOMM*%
G71*
G01*
G75*
%ADD77C,2.20*%
%ADD78R,2.20X2.20*%
%ADD79R,1.93X1.93*%
%ADD80C,1.93*%
%ADD81C,1.73*%
%ADD82C,1.50*%
%ADD83R,1.50X1.50*%
%ADD84R,1.50X1.50*%
%ADD85R,1.57X1.57*%
%ADD86C,1.57*%
%ADD87C,5.20*%
%ADD88R,7.40X5.75*%
%ADD89R,3.20X1.20*%
D77*
X10500Y1600D02*
D03*
X450Y2250D02*
D03*
Y2750D02*
D03*
Y3250D02*
D03*
D78*
X10500Y1100D02*
D03*
X450Y3750D02*
D03*
D79*
X7950Y3300D02*
D03*
X7450Y3000D02*
D03*
D80*
X7442Y3300D02*
D03*
X7696D02*
D03*
X7958Y3000D02*
D03*
X7704D02*
D03*
D81*
X5475Y4200D02*
D03*
X4725D02*
D03*
Y3400D02*
D03*
X5475D02*
D03*
Y2600D02*
D03*
X4725D02*
D03*
Y1800D02*
D03*
X5475D02*
D03*
X7150Y750D02*
D03*
X7650D02*
D03*
X5500Y1050D02*
D03*
X5000D02*
D03*
X8500Y3500D02*
D03*
X9000D02*
D03*
X1050Y5150D02*
D03*
Y4650D02*
D03*
X1350Y3650D02*
D03*
Y4150D02*
D03*
Y1850D02*
D03*
Y2350D02*
D03*
X1050Y1350D02*
D03*
Y850D02*
D03*
D82*
X4700Y5750D02*
D03*
X4900D02*
D03*
X5100D02*
D03*
X5750D02*
D03*
X5950D02*
D03*
X6150D02*
D03*
X6800D02*
D03*
X7000D02*
D03*
X7200D02*
D03*
X7850D02*
D03*
X8050D02*
D03*
X8250D02*
D03*
X10750Y2550D02*
D03*
Y2750D02*
D03*
Y2950D02*
D03*
Y3150D02*
D03*
Y3350D02*
D03*
Y4050D02*
D03*
Y4250D02*
D03*
Y4450D02*
D03*
Y4650D02*
D03*
Y4850D02*
D03*
D83*
X5300Y5750D02*
D03*
X6350D02*
D03*
X7400D02*
D03*
X8450D02*
D03*
D84*
X10750Y2350D02*
D03*
Y3850D02*
D03*
D85*
X9250Y1000D02*
D03*
D86*
Y500D02*
D03*
D87*
X400Y5600D02*
D03*
Y400D02*
D03*
X10600D02*
D03*
Y5600D02*
D03*
D88*
X9055Y1750D02*
D03*
D89*
X9660Y1521D02*
D03*
Y1979D02*
D03*
M02*
