G04 Layer_Color=8388736*
%FSLAX42Y42*%
%MOMM*%
G71*
G01*
G75*
%ADD10R,1.00X0.60*%
%ADD11R,0.60X1.00*%
%ADD58R,3.40X2.60*%
%ADD59R,0.90X2.60*%
%ADD60R,3.45X2.35*%
%ADD61R,1.20X2.35*%
%ADD62R,4.21X4.46*%
%ADD63R,1.27X0.41*%
%ADD64R,0.87X1.10*%
%ADD65R,0.90X1.15*%
%ADD66R,1.65X0.80*%
%ADD67R,2.00X1.60*%
%ADD68R,1.10X0.87*%
%ADD69R,1.60X2.00*%
%ADD70R,1.15X0.90*%
%ADD71R,10.41X3.71*%
%ADD72R,1.98X3.51*%
%ADD73R,1.45X2.15*%
%ADD74R,2.15X1.45*%
%ADD75R,1.00X1.00*%
%ADD76C,1.00*%
%ADD77C,2.20*%
%ADD78R,2.20X2.20*%
%ADD79R,1.93X1.93*%
%ADD80C,1.93*%
%ADD81C,1.73*%
%ADD82C,1.50*%
%ADD83R,1.50X1.50*%
%ADD84R,1.50X1.50*%
%ADD85R,1.57X1.57*%
%ADD86C,1.57*%
%ADD87C,5.20*%
D10*
X8900Y4300D02*
D03*
Y4380D02*
D03*
Y4460D02*
D03*
Y4540D02*
D03*
Y4620D02*
D03*
Y4700D02*
D03*
Y4780D02*
D03*
Y4860D02*
D03*
Y4940D02*
D03*
Y5020D02*
D03*
Y5100D02*
D03*
Y5180D02*
D03*
Y5260D02*
D03*
Y5340D02*
D03*
Y5420D02*
D03*
Y5500D02*
D03*
Y5580D02*
D03*
Y5660D02*
D03*
Y5740D02*
D03*
Y5820D02*
D03*
Y5900D02*
D03*
X10040Y4300D02*
D03*
Y4380D02*
D03*
Y4460D02*
D03*
Y4540D02*
D03*
Y4620D02*
D03*
Y4700D02*
D03*
Y4780D02*
D03*
Y4860D02*
D03*
Y4940D02*
D03*
Y5020D02*
D03*
Y5100D02*
D03*
Y5180D02*
D03*
Y5260D02*
D03*
Y5340D02*
D03*
Y5420D02*
D03*
Y5500D02*
D03*
Y5580D02*
D03*
D11*
X8990Y4210D02*
D03*
X9070D02*
D03*
X9150D02*
D03*
X9230D02*
D03*
X9310D02*
D03*
X9390D02*
D03*
X9470D02*
D03*
X9550D02*
D03*
X9630D02*
D03*
X9710D02*
D03*
X9790D02*
D03*
X9870D02*
D03*
X9950D02*
D03*
D58*
X8950Y2802D02*
D03*
D59*
X9204Y2198D02*
D03*
X9077D02*
D03*
X8950D02*
D03*
X8823D02*
D03*
X8696D02*
D03*
D60*
X9800Y2790D02*
D03*
D61*
X10030Y2210D02*
D03*
X9800D02*
D03*
X9570D02*
D03*
D62*
X3500Y3000D02*
D03*
D63*
X3123Y2512D02*
D03*
Y2577D02*
D03*
Y2642D02*
D03*
Y2707D02*
D03*
Y2772D02*
D03*
Y2837D02*
D03*
Y2902D02*
D03*
Y2967D02*
D03*
Y3033D02*
D03*
Y3098D02*
D03*
Y3163D02*
D03*
Y3228D02*
D03*
Y3293D02*
D03*
Y3358D02*
D03*
Y3423D02*
D03*
Y3488D02*
D03*
X3877D02*
D03*
Y3423D02*
D03*
Y3358D02*
D03*
Y3293D02*
D03*
Y3228D02*
D03*
Y3163D02*
D03*
Y3098D02*
D03*
Y3033D02*
D03*
Y2967D02*
D03*
Y2902D02*
D03*
Y2837D02*
D03*
Y2772D02*
D03*
Y2707D02*
D03*
Y2642D02*
D03*
Y2577D02*
D03*
Y2512D02*
D03*
D64*
X7579Y2500D02*
D03*
X7721D02*
D03*
Y2350D02*
D03*
X7579D02*
D03*
X6771Y3250D02*
D03*
X6629D02*
D03*
X7121Y3250D02*
D03*
X6979D02*
D03*
X6279Y3100D02*
D03*
X6421D02*
D03*
X6279Y3250D02*
D03*
X6421D02*
D03*
X6279Y2200D02*
D03*
X6421D02*
D03*
Y2050D02*
D03*
X6279D02*
D03*
X6621Y1500D02*
D03*
X6479D02*
D03*
X6979Y1650D02*
D03*
X7121D02*
D03*
Y1350D02*
D03*
X6979D02*
D03*
X7329Y1150D02*
D03*
X7471D02*
D03*
X7121Y1500D02*
D03*
X6979D02*
D03*
X8071Y1150D02*
D03*
X7929D02*
D03*
Y1300D02*
D03*
X8071D02*
D03*
X7929Y1450D02*
D03*
X8071D02*
D03*
X7721Y2200D02*
D03*
X7579D02*
D03*
X5629Y4850D02*
D03*
X5771D02*
D03*
Y5000D02*
D03*
X5629D02*
D03*
X6421Y4700D02*
D03*
X6279D02*
D03*
X6421Y5000D02*
D03*
X6279D02*
D03*
Y3600D02*
D03*
X6421D02*
D03*
Y3900D02*
D03*
X6279D02*
D03*
X8821Y1850D02*
D03*
X8679D02*
D03*
X8821Y1600D02*
D03*
X8679D02*
D03*
X9679Y3700D02*
D03*
X9821D02*
D03*
X8229Y4600D02*
D03*
X8371D02*
D03*
Y4450D02*
D03*
X8229D02*
D03*
Y4300D02*
D03*
X8371D02*
D03*
Y4150D02*
D03*
X8229D02*
D03*
X7579Y4700D02*
D03*
X7721D02*
D03*
Y4500D02*
D03*
X7579D02*
D03*
Y4350D02*
D03*
X7721D02*
D03*
Y4850D02*
D03*
X7579D02*
D03*
X7721Y5000D02*
D03*
X7579D02*
D03*
X7721Y4000D02*
D03*
X7579D02*
D03*
Y4150D02*
D03*
X7721D02*
D03*
Y3850D02*
D03*
X7579D02*
D03*
Y3700D02*
D03*
X7721D02*
D03*
X7321Y3600D02*
D03*
X7179D02*
D03*
X6971Y5000D02*
D03*
X6829D02*
D03*
X3929Y3750D02*
D03*
X4071D02*
D03*
Y3950D02*
D03*
X3929D02*
D03*
Y1850D02*
D03*
X4071D02*
D03*
X3371Y1450D02*
D03*
X3229D02*
D03*
Y4550D02*
D03*
X3371D02*
D03*
X429Y1500D02*
D03*
X571D02*
D03*
X429Y4500D02*
D03*
X571D02*
D03*
D65*
X7124Y3100D02*
D03*
X6976D02*
D03*
X7576Y2650D02*
D03*
X7724D02*
D03*
X6626Y3100D02*
D03*
X6774D02*
D03*
X6276Y2950D02*
D03*
X6424D02*
D03*
Y4850D02*
D03*
X6276D02*
D03*
X6424Y5150D02*
D03*
X6276D02*
D03*
Y2350D02*
D03*
X6424D02*
D03*
X6276Y2650D02*
D03*
X6424D02*
D03*
Y2500D02*
D03*
X6276D02*
D03*
X6424Y3450D02*
D03*
X6276D02*
D03*
X6424Y3750D02*
D03*
X6276D02*
D03*
X6826Y5150D02*
D03*
X6974D02*
D03*
X9526Y1600D02*
D03*
X9674D02*
D03*
X9526Y1850D02*
D03*
X9674D02*
D03*
X9324Y1600D02*
D03*
X9176D02*
D03*
X9324Y1850D02*
D03*
X9176D02*
D03*
X9824Y3850D02*
D03*
X9676D02*
D03*
X9824Y3550D02*
D03*
X9676D02*
D03*
X6424Y4400D02*
D03*
X6276D02*
D03*
Y4250D02*
D03*
X6424D02*
D03*
X6276Y4100D02*
D03*
X6424D02*
D03*
X3926Y4150D02*
D03*
X4074D02*
D03*
X3226Y3750D02*
D03*
X3374D02*
D03*
Y3950D02*
D03*
X3226D02*
D03*
X3926Y2050D02*
D03*
X4074D02*
D03*
X3374Y2250D02*
D03*
X3226D02*
D03*
Y2050D02*
D03*
X3374D02*
D03*
X3226Y1850D02*
D03*
X3374D02*
D03*
Y4150D02*
D03*
X3226D02*
D03*
X3374Y1650D02*
D03*
X3226D02*
D03*
Y4350D02*
D03*
X3374D02*
D03*
X426Y1350D02*
D03*
X574D02*
D03*
X426Y4650D02*
D03*
X574D02*
D03*
D66*
X7272Y1869D02*
D03*
Y1996D02*
D03*
Y2123D02*
D03*
Y2250D02*
D03*
Y2377D02*
D03*
Y2504D02*
D03*
Y2631D02*
D03*
X6728Y1869D02*
D03*
Y1996D02*
D03*
Y2123D02*
D03*
Y2250D02*
D03*
Y2377D02*
D03*
Y2504D02*
D03*
Y2631D02*
D03*
X7272Y3869D02*
D03*
Y3996D02*
D03*
Y4123D02*
D03*
Y4250D02*
D03*
Y4377D02*
D03*
Y4504D02*
D03*
Y4631D02*
D03*
X6728Y3869D02*
D03*
Y3996D02*
D03*
Y4123D02*
D03*
Y4250D02*
D03*
Y4377D02*
D03*
Y4504D02*
D03*
Y4631D02*
D03*
D67*
X6000Y1612D02*
D03*
Y1887D02*
D03*
Y1237D02*
D03*
Y963D02*
D03*
X6700D02*
D03*
Y1237D02*
D03*
D68*
X6250Y1029D02*
D03*
Y1171D02*
D03*
X6450D02*
D03*
Y1029D02*
D03*
X10250Y3929D02*
D03*
Y4071D02*
D03*
X8450Y5271D02*
D03*
Y5129D02*
D03*
X8300Y5271D02*
D03*
Y5129D02*
D03*
X8150D02*
D03*
Y5271D02*
D03*
X4200Y3029D02*
D03*
Y3171D02*
D03*
Y2679D02*
D03*
Y2821D02*
D03*
X1950D02*
D03*
Y2679D02*
D03*
X1950Y3321D02*
D03*
Y3179D02*
D03*
X1450Y2821D02*
D03*
Y2679D02*
D03*
Y3179D02*
D03*
Y3321D02*
D03*
D69*
X7613Y1950D02*
D03*
X7887D02*
D03*
X7888Y1700D02*
D03*
X7613D02*
D03*
D70*
X4400Y2974D02*
D03*
Y2826D02*
D03*
X2550Y2824D02*
D03*
Y2676D02*
D03*
X2550Y3324D02*
D03*
Y3176D02*
D03*
X2250Y2824D02*
D03*
Y2676D02*
D03*
X2250Y3324D02*
D03*
Y3176D02*
D03*
X1250Y2676D02*
D03*
Y2824D02*
D03*
Y3324D02*
D03*
Y3176D02*
D03*
D71*
X1950Y4970D02*
D03*
Y5630D02*
D03*
X2250Y3720D02*
D03*
Y4380D02*
D03*
Y1620D02*
D03*
Y2280D02*
D03*
X1950Y370D02*
D03*
Y1030D02*
D03*
D72*
X3250Y946D02*
D03*
Y354D02*
D03*
X4150Y1346D02*
D03*
Y754D02*
D03*
X3250Y5054D02*
D03*
Y5646D02*
D03*
X4150Y4654D02*
D03*
Y5246D02*
D03*
D73*
X8400Y2378D02*
D03*
Y2622D02*
D03*
D74*
X9922Y3100D02*
D03*
X9678D02*
D03*
D75*
X10250Y4425D02*
D03*
Y4275D02*
D03*
D76*
X3625Y3125D02*
D03*
X3375D02*
D03*
X3625Y2875D02*
D03*
X3375D02*
D03*
X3625Y3000D02*
D03*
X3375D02*
D03*
X3500Y3125D02*
D03*
Y2875D02*
D03*
Y3000D02*
D03*
D77*
X10500Y1600D02*
D03*
X450Y2250D02*
D03*
Y2750D02*
D03*
Y3250D02*
D03*
D78*
X10500Y1100D02*
D03*
X450Y3750D02*
D03*
D79*
X7950Y3300D02*
D03*
X7450Y3000D02*
D03*
D80*
X7442Y3300D02*
D03*
X7696D02*
D03*
X7958Y3000D02*
D03*
X7704D02*
D03*
D81*
X5475Y4200D02*
D03*
X4725D02*
D03*
Y3400D02*
D03*
X5475D02*
D03*
Y2600D02*
D03*
X4725D02*
D03*
Y1800D02*
D03*
X5475D02*
D03*
X7150Y750D02*
D03*
X7650D02*
D03*
X5500Y1050D02*
D03*
X5000D02*
D03*
X8500Y3500D02*
D03*
X9000D02*
D03*
X1050Y5150D02*
D03*
Y4650D02*
D03*
X1350Y3650D02*
D03*
Y4150D02*
D03*
Y1850D02*
D03*
Y2350D02*
D03*
X1050Y1350D02*
D03*
Y850D02*
D03*
D82*
X4700Y5750D02*
D03*
X4900D02*
D03*
X5100D02*
D03*
X5750D02*
D03*
X5950D02*
D03*
X6150D02*
D03*
X6800D02*
D03*
X7000D02*
D03*
X7200D02*
D03*
X7850D02*
D03*
X8050D02*
D03*
X8250D02*
D03*
X10750Y2550D02*
D03*
Y2750D02*
D03*
Y2950D02*
D03*
Y3150D02*
D03*
Y3350D02*
D03*
Y4050D02*
D03*
Y4250D02*
D03*
Y4450D02*
D03*
Y4650D02*
D03*
Y4850D02*
D03*
D83*
X5300Y5750D02*
D03*
X6350D02*
D03*
X7400D02*
D03*
X8450D02*
D03*
D84*
X10750Y2350D02*
D03*
Y3850D02*
D03*
D85*
X9250Y1000D02*
D03*
D86*
Y500D02*
D03*
D87*
X400Y5600D02*
D03*
Y400D02*
D03*
X10600D02*
D03*
Y5600D02*
D03*
M02*
