G04 Layer_Color=8388736*
%FSLAX42Y42*%
%MOMM*%
G71*
G01*
G75*
%ADD22R,1.00X0.60*%
%ADD23R,0.60X1.00*%
%ADD58R,1.00X1.00*%
%ADD59R,2.15X1.45*%
%ADD60R,1.45X2.15*%
%ADD61R,1.98X3.51*%
%ADD62R,10.41X3.71*%
%ADD63R,0.90X1.15*%
%ADD64R,1.15X0.90*%
%ADD65R,1.65X0.80*%
%ADD66R,0.87X1.10*%
%ADD67R,1.10X0.87*%
%ADD68R,1.60X2.00*%
%ADD69R,2.00X1.60*%
%ADD70R,1.27X0.41*%
%ADD71R,4.21X4.46*%
%ADD72R,1.20X2.35*%
%ADD73R,3.45X2.35*%
%ADD74R,0.90X2.60*%
%ADD75R,3.40X2.60*%
%ADD76C,5.20*%
%ADD77C,1.57*%
%ADD78R,1.57X1.57*%
%ADD79C,1.73*%
%ADD80C,1.50*%
%ADD81R,1.50X1.50*%
%ADD82R,1.50X1.50*%
%ADD83R,2.20X2.20*%
%ADD84C,2.20*%
%ADD85C,1.93*%
%ADD86R,1.93X1.93*%
%ADD87C,1.00*%
D22*
X10040Y5580D02*
D03*
Y5500D02*
D03*
Y5420D02*
D03*
Y5340D02*
D03*
Y5260D02*
D03*
Y5180D02*
D03*
Y5100D02*
D03*
Y5020D02*
D03*
Y4940D02*
D03*
Y4860D02*
D03*
Y4780D02*
D03*
Y4700D02*
D03*
Y4620D02*
D03*
Y4540D02*
D03*
Y4460D02*
D03*
Y4380D02*
D03*
Y4300D02*
D03*
X8900Y5900D02*
D03*
Y5820D02*
D03*
Y5740D02*
D03*
Y5660D02*
D03*
Y5580D02*
D03*
Y5500D02*
D03*
Y5420D02*
D03*
Y5340D02*
D03*
Y5260D02*
D03*
Y5180D02*
D03*
Y5100D02*
D03*
Y5020D02*
D03*
Y4940D02*
D03*
Y4860D02*
D03*
Y4780D02*
D03*
Y4700D02*
D03*
Y4620D02*
D03*
Y4540D02*
D03*
Y4460D02*
D03*
Y4380D02*
D03*
Y4300D02*
D03*
D23*
X9950Y4210D02*
D03*
X9870D02*
D03*
X9790D02*
D03*
X9710D02*
D03*
X9630D02*
D03*
X9550D02*
D03*
X9470D02*
D03*
X9390D02*
D03*
X9310D02*
D03*
X9230D02*
D03*
X9150D02*
D03*
X9070D02*
D03*
X8990D02*
D03*
D58*
X10250Y4275D02*
D03*
Y4425D02*
D03*
D59*
X9678Y3100D02*
D03*
X9922D02*
D03*
D60*
X8400Y2622D02*
D03*
Y2378D02*
D03*
D61*
X4150Y5246D02*
D03*
Y4654D02*
D03*
X3250Y5646D02*
D03*
Y5054D02*
D03*
X4150Y754D02*
D03*
Y1346D02*
D03*
X3250Y354D02*
D03*
Y946D02*
D03*
D62*
X1950Y1030D02*
D03*
Y370D02*
D03*
X2250Y2280D02*
D03*
Y1620D02*
D03*
Y4380D02*
D03*
Y3720D02*
D03*
X1950Y5630D02*
D03*
Y4970D02*
D03*
D63*
X574Y4650D02*
D03*
X426D02*
D03*
X574Y1350D02*
D03*
X426D02*
D03*
X3374Y4350D02*
D03*
X3226D02*
D03*
Y1650D02*
D03*
X3374D02*
D03*
X3226Y4150D02*
D03*
X3374D02*
D03*
Y1850D02*
D03*
X3226D02*
D03*
X3374Y2050D02*
D03*
X3226D02*
D03*
Y2250D02*
D03*
X3374D02*
D03*
X4074Y2050D02*
D03*
X3926D02*
D03*
X3226Y3950D02*
D03*
X3374D02*
D03*
Y3750D02*
D03*
X3226D02*
D03*
X4074Y4150D02*
D03*
X3926D02*
D03*
X6424Y4100D02*
D03*
X6276D02*
D03*
X6424Y4250D02*
D03*
X6276D02*
D03*
Y4400D02*
D03*
X6424D02*
D03*
X9676Y3550D02*
D03*
X9824D02*
D03*
X9676Y3850D02*
D03*
X9824D02*
D03*
X9176Y1850D02*
D03*
X9324D02*
D03*
X9176Y1600D02*
D03*
X9324D02*
D03*
X9674Y1850D02*
D03*
X9526D02*
D03*
X9674Y1600D02*
D03*
X9526D02*
D03*
X6974Y5150D02*
D03*
X6826D02*
D03*
X6276Y3750D02*
D03*
X6424D02*
D03*
X6276Y3450D02*
D03*
X6424D02*
D03*
X6276Y2500D02*
D03*
X6424D02*
D03*
Y2650D02*
D03*
X6276D02*
D03*
X6424Y2350D02*
D03*
X6276D02*
D03*
Y5150D02*
D03*
X6424D02*
D03*
X6276Y4850D02*
D03*
X6424D02*
D03*
Y2950D02*
D03*
X6276D02*
D03*
X6774Y3100D02*
D03*
X6626D02*
D03*
X7724Y2650D02*
D03*
X7576D02*
D03*
X6976Y3100D02*
D03*
X7124D02*
D03*
D64*
X1250Y3176D02*
D03*
Y3324D02*
D03*
Y2824D02*
D03*
Y2676D02*
D03*
X2250Y3176D02*
D03*
Y3324D02*
D03*
X2250Y2676D02*
D03*
Y2824D02*
D03*
X2550Y3176D02*
D03*
Y3324D02*
D03*
X2550Y2676D02*
D03*
Y2824D02*
D03*
X4400Y2826D02*
D03*
Y2974D02*
D03*
D65*
X6728Y4631D02*
D03*
Y4504D02*
D03*
Y4377D02*
D03*
Y4250D02*
D03*
Y4123D02*
D03*
Y3996D02*
D03*
Y3869D02*
D03*
X7272Y4631D02*
D03*
Y4504D02*
D03*
Y4377D02*
D03*
Y4250D02*
D03*
Y4123D02*
D03*
Y3996D02*
D03*
Y3869D02*
D03*
X6728Y2631D02*
D03*
Y2504D02*
D03*
Y2377D02*
D03*
Y2250D02*
D03*
Y2123D02*
D03*
Y1996D02*
D03*
Y1869D02*
D03*
X7272Y2631D02*
D03*
Y2504D02*
D03*
Y2377D02*
D03*
Y2250D02*
D03*
Y2123D02*
D03*
Y1996D02*
D03*
Y1869D02*
D03*
D66*
X571Y4500D02*
D03*
X429D02*
D03*
X571Y1500D02*
D03*
X429D02*
D03*
X3371Y4550D02*
D03*
X3229D02*
D03*
Y1450D02*
D03*
X3371D02*
D03*
X4071Y1850D02*
D03*
X3929D02*
D03*
Y3950D02*
D03*
X4071D02*
D03*
Y3750D02*
D03*
X3929D02*
D03*
X6829Y5000D02*
D03*
X6971D02*
D03*
X7179Y3600D02*
D03*
X7321D02*
D03*
X7721Y3700D02*
D03*
X7579D02*
D03*
Y3850D02*
D03*
X7721D02*
D03*
Y4150D02*
D03*
X7579D02*
D03*
Y4000D02*
D03*
X7721D02*
D03*
X7579Y5000D02*
D03*
X7721D02*
D03*
X7579Y4850D02*
D03*
X7721D02*
D03*
Y4350D02*
D03*
X7579D02*
D03*
Y4500D02*
D03*
X7721D02*
D03*
Y4700D02*
D03*
X7579D02*
D03*
X8229Y4150D02*
D03*
X8371D02*
D03*
Y4300D02*
D03*
X8229D02*
D03*
Y4450D02*
D03*
X8371D02*
D03*
Y4600D02*
D03*
X8229D02*
D03*
X9821Y3700D02*
D03*
X9679D02*
D03*
X8679Y1600D02*
D03*
X8821D02*
D03*
X8679Y1850D02*
D03*
X8821D02*
D03*
X6279Y3900D02*
D03*
X6421D02*
D03*
Y3600D02*
D03*
X6279D02*
D03*
Y5000D02*
D03*
X6421D02*
D03*
X6279Y4700D02*
D03*
X6421D02*
D03*
X5629Y5000D02*
D03*
X5771D02*
D03*
Y4850D02*
D03*
X5629D02*
D03*
X7579Y2200D02*
D03*
X7721D02*
D03*
X8071Y1450D02*
D03*
X7929D02*
D03*
X8071Y1300D02*
D03*
X7929D02*
D03*
Y1150D02*
D03*
X8071D02*
D03*
X6979Y1500D02*
D03*
X7121D02*
D03*
X7471Y1150D02*
D03*
X7329D02*
D03*
X6979Y1350D02*
D03*
X7121D02*
D03*
Y1650D02*
D03*
X6979D02*
D03*
X6479Y1500D02*
D03*
X6621D02*
D03*
X6279Y2050D02*
D03*
X6421D02*
D03*
Y2200D02*
D03*
X6279D02*
D03*
X6421Y3250D02*
D03*
X6279D02*
D03*
X6421Y3100D02*
D03*
X6279D02*
D03*
X6979Y3250D02*
D03*
X7121D02*
D03*
X6629Y3250D02*
D03*
X6771D02*
D03*
X7579Y2350D02*
D03*
X7721D02*
D03*
Y2500D02*
D03*
X7579D02*
D03*
D67*
X1450Y3321D02*
D03*
Y3179D02*
D03*
Y2679D02*
D03*
Y2821D02*
D03*
X1950Y3179D02*
D03*
Y3321D02*
D03*
X1950Y2679D02*
D03*
Y2821D02*
D03*
X4200D02*
D03*
Y2679D02*
D03*
Y3171D02*
D03*
Y3029D02*
D03*
X8150Y5271D02*
D03*
Y5129D02*
D03*
X8300D02*
D03*
Y5271D02*
D03*
X8450Y5129D02*
D03*
Y5271D02*
D03*
X10250Y4071D02*
D03*
Y3929D02*
D03*
X6450Y1029D02*
D03*
Y1171D02*
D03*
X6250D02*
D03*
Y1029D02*
D03*
D68*
X7613Y1700D02*
D03*
X7888D02*
D03*
X7887Y1950D02*
D03*
X7613D02*
D03*
D69*
X6700Y1237D02*
D03*
Y963D02*
D03*
X6000D02*
D03*
Y1237D02*
D03*
Y1887D02*
D03*
Y1612D02*
D03*
D70*
X3877Y2512D02*
D03*
Y2577D02*
D03*
Y2642D02*
D03*
Y2707D02*
D03*
Y2772D02*
D03*
Y2837D02*
D03*
Y2902D02*
D03*
Y2967D02*
D03*
Y3033D02*
D03*
Y3098D02*
D03*
Y3163D02*
D03*
Y3228D02*
D03*
Y3293D02*
D03*
Y3358D02*
D03*
Y3423D02*
D03*
Y3488D02*
D03*
X3123D02*
D03*
Y3423D02*
D03*
Y3358D02*
D03*
Y3293D02*
D03*
Y3228D02*
D03*
Y3163D02*
D03*
Y3098D02*
D03*
Y3033D02*
D03*
Y2967D02*
D03*
Y2902D02*
D03*
Y2837D02*
D03*
Y2772D02*
D03*
Y2707D02*
D03*
Y2642D02*
D03*
Y2577D02*
D03*
Y2512D02*
D03*
D71*
X3500Y3000D02*
D03*
D72*
X9570Y2210D02*
D03*
X9800D02*
D03*
X10030D02*
D03*
D73*
X9800Y2790D02*
D03*
D74*
X8696Y2198D02*
D03*
X8823D02*
D03*
X8950D02*
D03*
X9077D02*
D03*
X9204D02*
D03*
D75*
X8950Y2802D02*
D03*
D76*
X10600Y5600D02*
D03*
Y400D02*
D03*
X400D02*
D03*
Y5600D02*
D03*
D77*
X9250Y500D02*
D03*
D78*
Y1000D02*
D03*
D79*
X1050Y850D02*
D03*
Y1350D02*
D03*
X1350Y2350D02*
D03*
Y1850D02*
D03*
Y4150D02*
D03*
Y3650D02*
D03*
X1050Y4650D02*
D03*
Y5150D02*
D03*
X9000Y3500D02*
D03*
X8500D02*
D03*
X5000Y1050D02*
D03*
X5500D02*
D03*
X7650Y750D02*
D03*
X7150D02*
D03*
X5475Y1800D02*
D03*
X4725D02*
D03*
Y2600D02*
D03*
X5475D02*
D03*
Y3400D02*
D03*
X4725D02*
D03*
Y4200D02*
D03*
X5475D02*
D03*
D80*
X10750Y4850D02*
D03*
Y4650D02*
D03*
Y4450D02*
D03*
Y4250D02*
D03*
Y4050D02*
D03*
Y3350D02*
D03*
Y3150D02*
D03*
Y2950D02*
D03*
Y2750D02*
D03*
Y2550D02*
D03*
X8250Y5750D02*
D03*
X8050D02*
D03*
X7850D02*
D03*
X7200D02*
D03*
X7000D02*
D03*
X6800D02*
D03*
X6150D02*
D03*
X5950D02*
D03*
X5750D02*
D03*
X5100D02*
D03*
X4900D02*
D03*
X4700D02*
D03*
D81*
X10750Y3850D02*
D03*
Y2350D02*
D03*
D82*
X8450Y5750D02*
D03*
X7400D02*
D03*
X6350D02*
D03*
X5300D02*
D03*
D83*
X450Y3750D02*
D03*
X10500Y1100D02*
D03*
D84*
X450Y3250D02*
D03*
Y2750D02*
D03*
Y2250D02*
D03*
X10500Y1600D02*
D03*
D85*
X7704Y3000D02*
D03*
X7958D02*
D03*
X7696Y3300D02*
D03*
X7442D02*
D03*
D86*
X7450Y3000D02*
D03*
X7950Y3300D02*
D03*
D87*
X3500Y3000D02*
D03*
Y2875D02*
D03*
Y3125D02*
D03*
X3375Y3000D02*
D03*
X3625D02*
D03*
X3375Y2875D02*
D03*
X3625D02*
D03*
X3375Y3125D02*
D03*
X3625D02*
D03*
M02*
